Coordinates
version=1
nRows=13
nColumns=22
inDegrees=yes

Units are S.I. units (second, meters, Newtons, ...)
If the header above contains a line with 'inDegrees', this indicates whether rotational values are in degrees (yes) or radians (no).

endheader
time	pelvis_tilt	pelvis_list	pelvis_rotation	pelvis_tx	pelvis_ty	pelvis_tz	hip_flexion_r	hip_adduction_r	hip_rotation_r	knee_angle_r	ankle_angle_r	subtalar_angle_r	hip_flexion_l	hip_adduction_l	hip_rotation_l	knee_angle_l	ankle_angle_l	subtalar_angle_l	lumbar_extension	lumbar_bending	lumbar_rotation
      5.29000000	      3.87439002	     -1.20753093	    -24.51873163	      0.25928842	      0.89081637	      0.21502130	     -6.95169104	      4.40566786	     -7.21069924	    -15.98579129	     24.16785390	     -8.83319659	     24.63213159	     -5.84612743	     -9.39253996	    -25.66339476	      8.02098464	     -0.58561161	    -10.95732179	     -2.94152196	      6.34731608
      5.30000000	      3.82478618	     -1.15745667	    -24.74686633	      0.26320471	      0.89012504	      0.21660225	     -7.14371323	      4.31367311	     -6.98109962	    -16.05864021	     24.37014342	     -8.82118452	     24.64799827	     -5.77964821	     -9.83589739	    -24.50480207	      7.99009660	     -0.32820382	    -10.89976435	     -2.96592789	      6.42689142
      5.31000000	      3.77122804	     -1.11175111	    -24.98267720	      0.26716822	      0.88942848	      0.21815796	     -7.33502765	      4.22053553	     -6.74222858	    -16.13294698	     24.56370279	     -8.80709591	     24.65755508	     -5.71686355	    -10.25959474	    -23.42731599	      7.95763947	     -0.05696089	    -10.84005916	     -2.98170102	      6.51253451
      5.32000000	      3.71273465	     -1.07240571	    -25.22080032	      0.27117063	      0.88872376	      0.21970401	     -7.52520999	      4.13215193	     -6.50143227	    -16.20909009	     24.74529526	     -8.79222869	     24.66597653	     -5.66092276	    -10.65178029	    -22.44317513	      7.92304580	      0.21881238	    -10.77903055	     -2.99024623	      6.59944025
      5.33000000	      3.65104783	     -1.03800452	    -25.46086138	      0.27523085	      0.88801538	      0.22122118	     -7.71947946	      4.04445553	     -6.25886218	    -16.28030688	     24.91471898	     -8.77890531	     24.67435432	     -5.60804107	    -11.00880762	    -21.56141033	      7.88514085	      0.49432574	    -10.71605554	     -2.98926826	      6.68738045
      5.34000000	      3.58519765	     -1.01035285	    -25.70129437	      0.27934508	      0.88730045	      0.22271568	     -7.91244362	      3.95984625	     -6.02036702	    -16.35721617	     25.07203551	     -8.76750625	     24.68722130	     -5.56294207	    -11.32559249	    -20.79357134	      7.84491603	      0.74209491	    -10.65278783	     -2.97611571	      6.77416653
      5.35000000	      3.52982661	     -0.99001733	    -25.93546649	      0.28355276	      0.88660404	      0.22420547	     -8.14546860	      3.87606141	     -5.79360938	    -16.39290187	     25.21235558	     -8.76748786	     24.68891335	     -5.52204806	    -11.62285161	    -20.14599002	      7.80389551	      1.03363707	    -10.59747192	     -2.96079507	      6.85546305
      5.36000000	      3.45279625	     -0.97492207	    -26.18092358	      0.28776941	      0.88587024	      0.22565918	     -8.32727919	      3.79802184	     -5.55651397	    -16.48884389	     25.35227140	     -8.74791059	     24.71521484	     -5.49676222	    -11.85817933	    -19.61545692	      7.76302582	      1.17249651	    -10.53061156	     -2.92586492	      6.94878007
      5.37000000	      3.39538332	     -0.96579813	    -26.42573615	      0.29210974	      0.88517381	      0.22712842	     -8.56639296	      3.71314260	     -5.33020991	    -16.53082328	     25.47442728	     -8.72760375	     24.71556901	     -5.47526986	    -12.09431078	    -19.20269467	      7.73243679	      1.34374881	    -10.47495295	     -2.89561392	      7.04136613
      5.38000000	      3.32585509	     -0.96965263	    -26.67666810	      0.29649082	      0.88446467	      0.22857475	     -8.78673323	      3.63929225	     -5.09441859	    -16.60004497	     25.59026700	     -8.68348043	     24.72215312	     -5.47252989	    -12.27307009	    -18.89986738	      7.70241834	      1.43441679	    -10.41789527	     -2.84370241	      7.13553847
      5.39000000	      3.26045554	     -0.97860751	    -26.92889767	      0.30097705	      0.88377280	      0.23001982	     -9.03342678	      3.56173452	     -4.86567340	    -16.64135191	     25.69313111	     -8.61506569	     24.71341122	     -5.47542087	    -12.43283465	    -18.69796922	      7.68319813	      1.50707134	    -10.36200018	     -2.78751563	      7.22911627
      5.40000000	      3.19414752	     -0.99371757	    -27.18370042	      0.30556435	      0.88309478	      0.23146651	     -9.29548804	      3.48234085	     -4.64715948	    -16.66733644	     25.78009063	     -8.51205866	     24.69043398	     -5.48542052	    -12.56334860	    -18.58769150	      7.66608941	      1.55559088	    -10.30266045	     -2.72494355	      7.32153957
      5.41000000	      3.11365846	     -1.00940269	    -27.42075431	      0.31026022	      0.88240449	      0.23287601	     -9.56499206	      3.40673503	     -4.43829686	    -16.66425153	     25.87379468	     -8.40104555	     24.67864416	     -5.48900265	    -12.61045337	    -18.57333047	      7.64146152	      1.56837029	    -10.22604918	     -2.65220526	      7.38795271
